<?xml version="1.0" encoding="UTF-8"?>
<svg version="1.1" xmlns="http://www.w3.org/2000/svg" width="119" height="124">

<path d="M0 0 C2.625 1.75 2.625 1.75 4 4 C4.05470589 5.99925168 4.06008216 8.00090267 4 10 C3.40461426 10.31751221 2.80922852 10.63502441 2.19580078 10.9621582 C-0.49864687 12.40461636 -3.18682349 13.85839088 -5.875 15.3125 C-6.81214844 15.81201172 -7.74929687 16.31152344 -8.71484375 16.82617188 C-9.61074219 17.31279297 -10.50664063 17.79941406 -11.4296875 18.30078125 C-12.25710449 18.74591064 -13.08452148 19.19104004 -13.93701172 19.6496582 C-16.27484475 20.98718429 -16.27484475 20.98718429 -18 24 C-17.34 24.99 -16.68 25.98 -16 27 C-15.8046875 28.9375 -15.8046875 28.9375 -15.875 31 C-15.89304687 31.680625 -15.91109375 32.36125 -15.9296875 33.0625 C-15.95289062 33.701875 -15.97609375 34.34125 -16 35 C-16.31900893 38.08846081 -16.31900893 38.08846081 -14.1875 40.1875 C-10.00127789 45.56978557 -8.45300814 51.09066927 -8.7109375 57.890625 C-9.26833793 61.95814165 -10.92236872 64.79802665 -13.625 67.8125 C-17.18359903 69.59179952 -21.02134504 70.33704996 -25 70 C-26.78515625 68.73828125 -26.78515625 68.73828125 -28 67 C-27.71577464 58.61535176 -25.60447034 50.22417186 -24 42 C-25.09441406 41.72671875 -26.18882813 41.4534375 -27.31640625 41.171875 C-32.27590441 39.59409192 -33.25715837 38.32205348 -36 34 C-36.625 31 -36.625 31 -36 28 C-32.20718697 22.3649635 -32.20718697 22.3649635 -28.3125 21.1875 C-27.549375 20.795625 -26.78625 20.40375 -26 20 C-25.43283665 18.14278049 -25.43283665 18.14278049 -25.125 15.9375 C-24.02269388 9.37665876 -20.00559475 4.49890445 -14.9609375 0.3046875 C-9.96353006 -3.0202808 -5.42360248 -1.64217096 0 0 Z " fill="#27437E" transform="translate(86,29)"/>
<path d="M0 0 C2.29026497 1.39528278 4.368568 2.7751603 6.5 4.375 C9.69157208 6.7250887 12.72275895 8.87365821 16.3515625 10.52734375 C19 12 19 12 19.8046875 14.04296875 C19.86979167 16.02864583 19.93489583 18.01432292 20 20 C12.29352706 22.47188755 5.23286799 22.53922472 -2.4375 19.75 C-6.62094937 16.89301019 -8.61536713 14.51105769 -9.875 9.5625 C-10.00661211 5.81155499 -9.54077179 3.40591658 -8 0 C-5.00222572 -1.49888714 -3.2196361 -0.82024062 0 0 Z " fill="#27437E" transform="translate(30,45)"/>
<path d="M0 0 C7.09821429 0.66964286 7.09821429 0.66964286 10 4 C9.72285156 4.75925781 9.44570313 5.51851562 9.16015625 6.30078125 C8.79792969 7.29464844 8.43570312 8.28851563 8.0625 9.3125 C7.70285156 10.29863281 7.34320313 11.28476562 6.97265625 12.30078125 C6.29114035 14.1920563 5.6357189 16.09284329 5 18 C1.44219804 17.39009109 -1.6828589 16.4216319 -5 15 C-4.67 13.35 -4.34 11.7 -4 10 C-1.36 9.67 1.28 9.34 4 9 C1.69 8.01 -0.62 7.02 -3 6 C-2.01 4.02 -1.02 2.04 0 0 Z " fill="#2B4781" transform="translate(8,34)"/>
<path d="M0 0 C3.39093457 1.13031152 3.53808707 1.53808707 6 4 C6.99 4.33 7.98 4.66 9 5 C7.44499019 8.81684226 4.96404505 11.19195732 2 14 C1.01 13.34 0.02 12.68 -1 12 C-1 11.34 -1 10.68 -1 10 C-3.475 9.01 -3.475 9.01 -6 8 C-4.02 5.36 -2.04 2.72 0 0 Z " fill="#294580" transform="translate(26,93)"/>
<path d="M0 0 C1.0828125 0.495 1.0828125 0.495 2.1875 1 C5.28768083 2.27917472 5.28768083 2.27917472 10 2 C9.34 5.63 8.68 9.26 8 13 C4.7 12.34 1.4 11.68 -2 11 C-1.125 3.375 -1.125 3.375 0 0 Z " fill="#25417D" transform="translate(67,2)"/>
<path d="M0 0 C0.66 2.31 1.32 4.62 2 7 C-2.95 8.485 -2.95 8.485 -8 10 C-10 6 -10 6 -9.9375 3.875 C-9 2 -9 2 -6.6875 0.75 C-4 0 -4 0 0 0 Z " fill="#375188" transform="translate(14,69)"/>
<path d="M0 0 C6.39534884 0.69767442 6.39534884 0.69767442 9 2 C8.67 3.98 8.34 5.96 8 8 C3.82412255 9.39195915 1.86525224 7.82323219 -2 6 C-1.125 1.125 -1.125 1.125 0 0 Z " fill="#365087" transform="translate(107,69)"/>
<path d="M0 0 C2.5 0.125 2.5 0.125 3.5 1.125 C3.57179964 2.64428038 3.58392007 4.16667482 3.5625 5.6875 C3.55347656 6.51378906 3.54445313 7.34007812 3.53515625 8.19140625 C3.51775391 9.14853516 3.51775391 9.14853516 3.5 10.125 C1.5085944 10.50633299 -0.49279077 10.83825582 -2.5 11.125 C-3.5 10.125 -3.5 10.125 -3.6328125 8.09375 C-3.63023438 7.2790625 -3.62765625 6.464375 -3.625 5.625 C-3.62757812 4.8103125 -3.63015625 3.995625 -3.6328125 3.15625 C-3.43435342 0.12099356 -3.05615366 0.15280768 0 0 Z " fill="#365087" transform="translate(59.5,1.875)"/>
<path d="M0 0 C2.96404505 2.80804268 5.44499019 5.18315774 7 9 C4 10 4 10 3 10 C3 10.66 3 11.32 3 12 C1.25 11.9375 1.25 11.9375 -1 11 C-2.59501537 8.75835678 -3.74543018 6.46433357 -5 4 C-4.0409375 3.8453125 -4.0409375 3.8453125 -3.0625 3.6875 C-2.381875 3.460625 -1.70125 3.23375 -1 3 C-0.67 2.01 -0.34 1.02 0 0 Z " fill="#24407C" transform="translate(92,93)"/>
<path d="M0 0 C3.63 0.33 7.26 0.66 11 1 C10.67 3.31 10.34 5.62 10 8 C6.7 8 3.4 8 0 8 C0 5.36 0 2.72 0 0 Z " fill="#27437E" transform="translate(107,59)"/>
<path d="M0 0 C0.99 0.33 1.98 0.66 3 1 C3 1.99 3 2.98 3 4 C4.32 4 5.64 4 7 4 C6.07347299 5.17539996 5.13336613 6.34010577 4.1875 7.5 C3.66542969 8.1496875 3.14335938 8.799375 2.60546875 9.46875 C1 11 1 11 -2 11 C-2 9.68 -2 8.36 -2 7 C-3.32 7.33 -4.64 7.66 -6 8 C-2.25 2.25 -2.25 2.25 0 0 Z " fill="#213E7B" transform="translate(96,16)"/>
<path d="M0 0 C0.33 1.65 0.66 3.3 1 5 C-0.26418246 5.69965443 -1.53665402 6.38434763 -2.8125 7.0625 C-3.52019531 7.44535156 -4.22789063 7.82820313 -4.95703125 8.22265625 C-7 9 -7 9 -10 8 C-10 6.68 -10 5.36 -10 4 C-10.33 3.01 -10.66 2.02 -11 1 C-3.375 0 -3.375 0 0 0 Z " fill="#24407C" transform="translate(116,43)"/>
<path d="M0 0 C1.32 0.66 2.64 1.32 4 2 C3.49287967 5.71888239 2.88391785 8.73454239 1 12 C-3.75 10.125 -3.75 10.125 -6 9 C-4.47291037 5.56404834 -2.40072955 2.88087546 0 0 Z " fill="#27437F" transform="translate(89,10)"/>
<path d="M0 0 C2.97 0.99 5.94 1.98 9 3 C9 3.99 9 4.98 9 6 C7.68 6 6.36 6 5 6 C5.66 6.33 6.32 6.66 7 7 C6.34 8.32 5.68 9.64 5 11 C2.69 9.02 0.38 7.04 -2 5 C-1 1 -1 1 0 0 Z " fill="#24407D" transform="translate(101,82)"/>
<path d="M0 0 C2.94984838 1.04223765 3.88941929 1.80463087 5.45703125 4.57421875 C5.90433594 5.60160156 6.35164063 6.62898438 6.8125 7.6875 C9.4191883 13.22754598 12.32981786 17.07594163 17 21 C13.19250962 21 11.68663614 19.52428154 8.91796875 17.05078125 C4.40616221 12.22654819 0 6.72479265 0 0 Z " fill="#213E7B" transform="translate(26,66)"/>
<path d="M0 0 C-1.73046875 1.5546875 -1.73046875 1.5546875 -4 3 C-6.05078125 2.8203125 -6.05078125 2.8203125 -8.3125 2.125 C-15.2348861 0.42294405 -21.98497359 1.30785073 -29 2 C-20.99197374 -3.33868417 -8.74339993 -3.88595553 0 0 Z " fill="#213E7B" transform="translate(74,24)"/>
<path d="M0 0 C1 3 1 3 0.03125 5.234375 C-8.81516588 19.76777251 -8.81516588 19.76777251 -17 22 C-15.63560848 16.84563204 -12.27426385 13.93351599 -8 11 C-7.34 11 -6.68 11 -6 11 C-5.7525 10.29875 -5.505 9.5975 -5.25 8.875 C-3.83911974 5.62997541 -2.02104602 2.89683263 0 0 Z " fill="#213E7B" transform="translate(95,69)"/>
<path d="M0 0 C0.78375 0.04125 1.5675 0.0825 2.375 0.125 C2.705 1.445 3.035 2.765 3.375 4.125 C2.385 4.455 1.395 4.785 0.375 5.125 C0.375 6.115 0.375 7.105 0.375 8.125 C0.705 7.465 1.035 6.805 1.375 6.125 C2.365 6.125 3.355 6.125 4.375 6.125 C4.045 7.445 3.715 8.765 3.375 10.125 C1 10.75 1 10.75 -1.625 11.125 C-4.42408133 8.32591867 -4.34862983 5.99418237 -4.625 2.125 C-2.625 0.125 -2.625 0.125 0 0 Z " fill="#213E7B" transform="translate(49.625,2.875)"/>
<path d="M0 0 C1.98 0.66 3.96 1.32 6 2 C5.67 3.65 5.34 5.3 5 7 C4.360625 7.12375 3.72125 7.2475 3.0625 7.375 C2.0415625 7.684375 2.0415625 7.684375 1 8 C0.67 8.66 0.34 9.32 0 10 C-1.32 9.67 -2.64 9.34 -4 9 C-2.68 6.03 -1.36 3.06 0 0 Z " fill="#28447F" transform="translate(80,6)"/>
<path d="M0 0 C0.66 0 1.32 0 2 0 C2.66 1.65 3.32 3.3 4 5 C-0.95 7.475 -0.95 7.475 -6 10 C-6.66 8.35 -7.32 6.7 -8 5 C-7.01 5 -6.02 5 -5 5 C-3.31201173 3.56249809 -3.31201173 3.56249809 -2 2 C-1.67 2.33 -1.34 2.66 -1 3 C-0.67 2.01 -0.34 1.02 0 0 Z " fill="#213E7B" transform="translate(15,77)"/>
<path d="M0 0 C1 1 1 1 1.0625 3.5625 C1.041875 4.366875 1.02125 5.17125 1 6 C0.34 6 -0.32 6 -1 6 C-1.33 5.34 -1.66 4.68 -2 4 C-2.33 4.66 -2.66 5.32 -3 6 C-3.66 6 -4.32 6 -5 6 C-5 5.34 -5 4.68 -5 4 C-5.99 4 -6.98 4 -8 4 C-8 4.66 -8 5.32 -8 6 C-8.66 6 -9.32 6 -10 6 C-10 4.35 -10 2.7 -10 1 C-6.50615721 -0.16461426 -3.66344611 -0.13568319 0 0 Z " fill="#213E7B" transform="translate(117,52)"/>
<path d="M0 0 C2.64 1.98 5.28 3.96 8 6 C6.515 8.475 6.515 8.475 5 11 C4.34 10.34 3.68 9.68 3 9 C3.33 8.34 3.66 7.68 4 7 C3.01 7.33 2.02 7.66 1 8 C0.34 7.01 -0.32 6.02 -1 5 C-1.66 5 -2.32 5 -3 5 C-1.125 1.125 -1.125 1.125 0 0 Z " fill="#213E7B" transform="translate(97,88)"/>
<path d="M0 0 C0.66 0 1.32 0 2 0 C2 1.98 2 3.96 2 6 C-1.63 6 -5.26 6 -9 6 C-9 4.68 -9 3.36 -9 2 C-6.03 2 -3.06 2 0 2 C0 1.34 0 0.68 0 0 Z " fill="#213E7B" transform="translate(11,57)"/>
<path d="M0 0 C0.66 0.33 1.32 0.66 2 1 C2 1.66 2 2.32 2 3 C2.99 3.99 3.98 4.98 5 6 C1.7 7.32 -1.6 8.64 -5 10 C-5.66 9.01 -6.32 8.02 -7 7 C-4.66666667 4.66666667 -2.33333333 2.33333333 0 0 Z " fill="#25427D" transform="translate(104,23)"/>
<path d="M0 0 C3 4.38461538 3 4.38461538 3 7 C3.99 7.33 4.98 7.66 6 8 C2.375 11 2.375 11 -1 11 C-1.185625 9.63875 -1.185625 9.63875 -1.375 8.25 C-1.92109677 5.41029677 -2.57263803 3.47409409 -4 1 C-2 0 -2 0 0 0 Z " fill="#213E7B" transform="translate(85,99)"/>
<path d="M0 0 C2.95201883 2.95201883 4.13277572 5.95295336 5 10 C2 10 2 10 0.3125 8.625 C-1 7 -1 7 -1 5 C-1.99 5.33 -2.98 5.66 -4 6 C-4 5.01 -4 4.02 -4 3 C-2 1.3125 -2 1.3125 0 0 Z " fill="#213E7B" transform="translate(27,12)"/>
<path d="M0 0 C0.66 0 1.32 0 2 0 C2.66 3.63 3.32 7.26 4 11 C3.01 11 2.02 11 1 11 C-0.60546875 9.25 -0.60546875 9.25 -2.1875 7 C-2.71730469 6.2575 -3.24710938 5.515 -3.79296875 4.75 C-4.19128906 4.1725 -4.58960937 3.595 -5 3 C-4.01 2.67 -3.02 2.34 -2 2 C-1.67 2.33 -1.34 2.66 -1 3 C-0.67 2.01 -0.34 1.02 0 0 Z " fill="#213E7B" transform="translate(35,7)"/>
<path d="M0 0 C0.66 0.99 1.32 1.98 2 3 C0.7934375 3.8971875 0.7934375 3.8971875 -0.4375 4.8125 C-3.22327984 6.80947276 -3.22327984 6.80947276 -4 10 C-4.99 9.67 -5.98 9.34 -7 9 C-8.1875 6.4375 -8.1875 6.4375 -9 4 C-8.2575 3.896875 -7.515 3.79375 -6.75 3.6875 C-3.82985982 2.95746496 -2.26812446 1.93210602 0 0 Z " fill="#213E7B" transform="translate(20,84)"/>
<path d="M0 0 C2.475 0.99 2.475 0.99 5 2 C4.01 5.3 3.02 8.6 2 12 C0.68 11.34 -0.64 10.68 -2 10 C-1.67 8.906875 -1.34 7.81375 -1 6.6875 C0.13086649 3.15421116 0.13086649 3.15421116 0 0 Z " fill="#213E7B" transform="translate(40,101)"/>
<path d="M0 0 C1.0828125 0.7115625 1.0828125 0.7115625 2.1875 1.4375 C4.89475226 2.94152903 6.96194275 3.56599182 10 4 C8.515 6.475 8.515 6.475 7 9 C0.57142857 4.85714286 0.57142857 4.85714286 -2 2 C-1.34 1.34 -0.68 0.68 0 0 Z " fill="#213E7B" transform="translate(15,23)"/>
<path d="M0 0 C0.99 0.99 1.98 1.98 3 3 C0.69 5.31 -1.62 7.62 -4 10 C-4.99 9.01 -5.98 8.02 -7 7 C-4.69 4.69 -2.38 2.38 0 0 Z " fill="#213E7B" transform="translate(23,89)"/>
<path d="M0 0 C2.37948772 0.17625835 3.70225849 0.69719773 5.37890625 2.40234375 C6.62115486 3.90649092 7.81376056 5.45129851 9 7 C8.01 7.66 7.02 8.32 6 9 C3.69 6.69 1.38 4.38 -1 2 C-0.67 1.34 -0.34 0.68 0 0 Z " fill="#213E7B" transform="translate(19,18)"/>
<path d="M0 0 C0.99 0.33 1.98 0.66 3 1 C2.49701212 5.40114397 0.91227269 7.71195019 -2 11 C-2.66 10.67 -3.32 10.34 -4 10 C-2.8905928 6.51329166 -1.73662334 3.22515763 0 0 Z " fill="#213E7B" transform="translate(36,99)"/>
<path d="M0 0 C4.43090471 1.20842856 6.98112756 2.51668565 10 6 C9.01 6.66 8.02 7.32 7 8 C4.36 6.35 1.72 4.7 -1 3 C-0.67 2.01 -0.34 1.02 0 0 Z " fill="#213E7B" transform="translate(11,28)"/>
<path d="M0 0 C3.3 0.33 6.6 0.66 10 1 C10 1.99 10 2.98 10 4 C6.37 4 2.74 4 -1 4 C-0.67 2.68 -0.34 1.36 0 0 Z " fill="#213E7B" transform="translate(3,52)"/>
<path d="M0 0 C0 3 0 3 -2.375 5.6875 C-5 8 -5 8 -7 8 C-5.61918777 3.85756330 -3.40174442 2.67796901 0 0 Z " fill="#213E7B" transform="translate(86,76)"/>
</svg>